HIERARCHY
ROOT Hips
{
  OFFSET 1.44925e-005 102.336 -0.101585
  CHANNELS 6 Xposition Yposition Zposition Zrotation Xrotation Yrotation
  JOINT LeftUpLeg
  {
    OFFSET 8.9458 -8.66707 0.101652
    CHANNELS 3 Zrotation Xrotation Yrotation
    JOINT LeftLeg
    {
      OFFSET 0 -44.4227 1.3727
      CHANNELS 3 Zrotation Xrotation Yrotation
      JOINT LeftFoot
      {
        OFFSET -0.253549 -42.0924 -1.46059
        CHANNELS 3 Zrotation Xrotation Yrotation
        JOINT LeftToes
        {
          OFFSET -0.04 -4.41509 8.4991
          CHANNELS 3 Zrotation Xrotation Yrotation
          End Site
          {
            OFFSET 0.08 -0.047448 9.77979
          }
        }
      }
    }
  }
  JOINT Spine
  {
    OFFSET 0 11.8905 0
    CHANNELS 3 Zrotation Xrotation Yrotation
    JOINT Spine1
    {
      OFFSET 0 25.6574 0.127663
      CHANNELS 3 Zrotation Xrotation Yrotation
      JOINT RightShoulder
      {
        OFFSET -8.99 -0.362252 -0.22
        CHANNELS 3 Zrotation Xrotation Yrotation
        JOINT RightArm
        {
          OFFSET -10.2827 -0.00338 0.322123
          CHANNELS 3 Zrotation Xrotation Yrotation
          JOINT RightForeArm
          {
            OFFSET -26.364 0.099144 -1.42434
            CHANNELS 3 Zrotation Xrotation Yrotation
            JOINT RightHand
            {
              OFFSET -22.0324 0.085362 1.02216
              CHANNELS 3 Zrotation Xrotation Yrotation
              End Site
              {
                OFFSET -13.3284 -0.6 1.50291
              }
            }
          }
        }
      }
      JOINT LeftShoulder1
      {
        OFFSET 8.99 -0.362252 -0.22
        CHANNELS 3 Zrotation Xrotation Yrotation
        JOINT LeftArm
        {
          OFFSET 10.2827 -0.00337999 0.322123
          CHANNELS 3 Zrotation Xrotation Yrotation
          JOINT LeftForeArm
          {
            OFFSET 26.2597 0.099144 -1.42434
            CHANNELS 3 Zrotation Xrotation Yrotation
            JOINT LeftHand
            {
              OFFSET 22.0902 0.085362 1.02216
              CHANNELS 3 Zrotation Xrotation Yrotation
              End Site
              {
                OFFSET 13.419 -0.6 1.50291
              }
            }
          }
        }
      }
      JOINT Head
      {
        OFFSET 0 8.73416 0.011341
        CHANNELS 3 Zrotation Xrotation Yrotation
        End Site
        {
          OFFSET -0.29 12.7742 2.51395
        }
      }
    }
  }
  JOINT RightUpLeg
  {
    OFFSET -8.9458 -8.66707 0.101652
    CHANNELS 3 Zrotation Xrotation Yrotation
    JOINT RightLeg
    {
      OFFSET 0 -44.4227 1.3727
      CHANNELS 3 Zrotation Xrotation Yrotation
      JOINT RightFoot
      {
        OFFSET 0.253549 -42.0924 -1.46059
        CHANNELS 3 Zrotation Xrotation Yrotation
        JOINT RightToes
        {
          OFFSET 0.04 -4.41509 8.4991
          CHANNELS 3 Zrotation Xrotation Yrotation
          End Site
          {
            OFFSET -0.08 -0.137448 9.77979
          }
        }
      }
    }
  }
}
MOTION
Frames:	12
Frame Time:	0.0333333
8.11665 92.2344 -0.51218 -4.218 -5.29384 -76.7626 -3.1836 5.56467 -14.969 1.21817 39.3167 18.6072 -16.1422 -38.0252 -4.38252 -1.33649e-009 8.75224e-006 -1.46515e-008 3.19297 23.5343 -5.0065 -2.84426 -5.26281 -3.93503 36.3671 1.72978 0.0564214 38.889 -14.6021 -10.5666 5.21911 31.3892 13.8973 -5.49292 9.6744 0.0342521 -44.8492 3.72532 -3.72122 -21.4525 -9.58641 11.052 2.24155 28.8948 -27.6413 5.82328 9.61819 -0.917488 -0.46047 -16.9198 -8.84892 -10.9862 -32.8934 -3.09698 -0.548263 33.3886 -6.40329 7.34815 2.24137 -0.754182 0.0462048 0.000530889 0.662642 
5.84015 91.4658 -0.810296 -3.91727 -5.16817 -78.1816 -3.31591 6.49957 -14.9615 1.27949 40.3858 20.0199 -18.0258 -38.4859 -5.01071 -1.33649e-009 8.75224e-006 -1.46515e-008 3.96357 23.733 -4.40726 -3.7766 -4.388 -2.99951 35.8685 1.72907 0.0981813 38.8355 -17.5479 -5.90918 6.0342 36.4567 11.3718 -5.58249 9.69039 -0.45071 -45.5375 3.80081 -3.76019 -21.7068 -12.7272 10.4153 2.81343 29.4078 -29.2913 5.82328 9.61819 -0.917488 -0.641926 -18.25 -8.67486 -9.7533 -35.6467 -1.97483 -0.690749 39.9944 -5.5233 6.11241 -2.24301 -0.419496 0.0462048 0.000530889 0.662642 
3.7959 91.4658 -1.11292 -2.77757 -5.1801 -78.5187 -3.15901 7.47742 -15.3949 1.28989 38.5841 20.7075 -18.7319 -37.8737 -5.10755 -1.33649e-009 8.75224e-006 -1.46515e-008 3.64247 23.5609 -4.20824 -3.30061 -4.45275 -2.92918 35.2377 1.71699 0.125159 39.5135 -17.7865 -2.28062 5.98722 35.3711 11.5664 -6.88933 9.65544 -0.882893 -45.3687 3.74435 -3.67793 -23.2375 -12.8514 10.1708 4.01741 30.8041 -30.7598 5.82328 9.61819 -0.917488 -0.652842 -18.0809 -7.92726 -9.26223 -36.9359 -1.32972 -0.707701 42.5758 -5.40263 6.54019 -6.03649 -0.254897 0.0462048 0.000530889 0.662642 
1.95183 91.7865 -1.40912 -1.03158 -4.90587 -77.8951 -2.05918 7.74543 -15.3584 1.19774 35.8975 19.4091 -18.8137 -36.9826 -4.96636 -1.33649e-009 8.75224e-006 -1.46515e-008 3.63061 22.9579 -4.50185 -2.79691 -5.07502 -3.36275 34.9098 1.7028 0.120206 40.1288 -13.7178 -0.401353 5.31032 26.2749 15.2969 -8.57468 9.57312 -0.628543 -45.0124 3.67847 -3.60567 -24.5479 -11.4396 10.0115 5.28403 32.184 -32.1167 5.82328 9.61819 -0.917488 -0.652133 -17.5104 -7.30591 -9.17349 -37.8204 -1.70845 -0.738781 43.175 -5.95019 6.57557 -6.77705 -0.216903 0.0462048 0.000530889 0.662642 
0.387738 92.1311 -1.66205 0.466551 -4.41769 -77.4144 -0.6004 7.72035 -14.4521 1.07332 33.7053 17.1891 -18.7365 -35.8577 -4.73905 -1.33649e-009 8.75224e-006 -1.46515e-008 4.0971 22.4615 -4.88786 -2.76145 -5.40427 -3.72808 34.7123 1.69738 0.124853 40.5292 -9.55069 1.16924 5.22015 17.3891 19.7932 -9.35069 9.49865 -0.0264297 -44.9194 3.65648 -3.57724 -25.1803 -10.3136 9.51834 5.85357 32.7283 -32.8297 5.82328 9.61819 -0.917488 -0.627395 -17.7886 -6.7953 -8.75684 -38.6231 -1.92036 -0.777156 43.6724 -6.64442 5.80224 -7.06147 -0.199145 0.0462048 0.000530889 0.662642 
-0.878282 92.4612 -1.86729 1.34671 -4.19495 -77.4184 0.268143 8.20296 -13.6293 1.00391 31.7487 16.003 -18.5029 -34.4231 -4.41998 -1.33649e-009 8.75224e-006 -1.46515e-008 4.26613 22.5145 -5.01156 -2.57682 -5.44903 -3.86157 34.2878 1.69587 0.15964 40.9873 -9.69213 3.0732 4.88185 16.2148 22.9401 -9.26031 9.48275 0.249095 -44.9375 3.64854 -3.55916 -25.628 -9.85244 8.84473 5.89683 32.7873 -32.8303 5.82328 9.61819 -0.917488 -0.55024 -18.3771 -6.41051 -8.20861 -38.9666 -1.589 -0.796684 44.12 -6.9316 5.24872 -8.42305 -0.141046 0.0462048 0.000530889 0.662642 
-1.99957 92.6937 -2.04052 1.93715 -4.18763 -77.5464 0.645399 9.11332 -13.3314 0.982958 29.6936 15.9045 -18.197 -33.1543 -4.12118 -1.33649e-009 8.75224e-006 -1.46515e-008 4.15027 22.7732 -4.9254 -2.26673 -5.64447 -3.83756 33.8162 1.69134 0.193302 41.5438 -10.9871 4.69461 3.97432 18.5966 24.9462 -9.26179 9.47928 0.296449 -44.8901 3.63861 -3.54712 -26.0051 -9.87096 8.40365 5.99646 32.951 -32.7526 5.82328 9.61819 -0.917488 -0.487421 -18.3231 -6.40195 -7.82611 -38.9996 -1.23305 -0.805701 44.3528 -7.03472 5.12983 -9.57436 -0.097597 0.0462048 0.000530889 0.662642 
-3.05407 92.752 -2.18479 2.55912 -3.96758 -77.5695 1.20373 9.77727 -13.0753 0.962576 28.0318 15.7033 -18.0834 -32.4879 -3.97922 -1.33649e-009 8.75224e-006 -1.46515e-008 4.44092 22.7496 -4.88522 -2.433 -6.00494 -3.73577 33.7259 1.69114 0.200428 41.7087 -11.2825 5.72078 3.44733 19.7252 26.2682 -9.44094 9.46555 0.364551 -44.7748 3.62956 -3.54698 -26.083 -10.4078 8.24278 6.20738 33.166 -32.958 5.82328 9.61819 -0.917488 -0.459179 -17.8393 -6.74444 -7.36097 -39.2688 -1.03267 -0.826209 44.8007 -7.31557 4.96433 -9.98609 -0.0852265 0.0462048 0.000530889 0.662642 
-3.93267 92.715 -2.30094 3.12478 -3.52721 -77.4846 2.00148 10.0302 -12.712 0.931566 27.0501 15.0915 -18.2004 -32.2398 -3.96382 -1.33649e-009 8.75224e-006 -1.46515e-008 5.0854 22.6148 -4.96897 -2.86835 -6.29127 -3.66621 33.9703 1.69963 0.198617 41.5349 -11.2121 6.45593 3.60853 19.5588 26.9182 -9.22184 9.47819 0.338304 -44.5644 3.60713 -3.53512 -26.0241 -11.1369 8.09209 6.30631 33.2061 -33.2186 5.82328 9.61819 -0.917488 -0.401212 -17.5901 -7.10037 -6.7397 -39.7349 -0.811354 -0.852832 45.5325 -7.65451 4.80774 -10.6809 -0.0632661 0.0462048 0.000530889 0.662642 
-4.55943 92.6715 -2.40108 3.48661 -3.25837 -77.2289 2.5912 10.2061 -12.5775 0.907723 26.3915 14.5743 -18.3107 -32.067 -3.9594 -1.33649e-009 8.75224e-006 -1.46515e-008 5.34534 22.6878 -5.05034 -2.85611 -6.43666 -3.71009 34.1651 1.71042 0.207307 41.4429 -11.1806 6.93595 3.68405 19.4865 27.2354 -8.69424 9.52378 0.0470516 -44.301 3.56964 -3.50168 -26.0662 -11.3673 7.77191 6.31549 33.1872 -33.3052 5.82328 9.61819 -0.917488 -0.320773 -17.6335 -7.32813 -6.37068 -40.0225 -0.619431 -0.875972 46.1838 -7.91034 4.88108 -11.8033 -0.0201176 0.0462048 0.000530889 0.662642 
-5.00717 92.608 -2.48357 3.72547 -3.24707 -76.7905 2.86697 10.3969 -12.6926 0.894501 25.8395 14.2982 -18.3043 -31.9752 -3.942 -1.33649e-009 8.75224e-006 -1.46515e-008 5.10165 22.7911 -5.0599 -2.43406 -6.44749 -3.81842 34.2049 1.71579 0.216363 41.5311 -11.3546 6.96412 3.368 20.0341 27.5772 -8.38945 9.55828 -0.267332 -44.1781 3.54906 -3.47985 -26.0143 -11.0618 7.35385 6.33998 33.2217 -33.3013 5.82328 9.61819 -0.917488 -0.305645 -17.7342 -7.55218 -6.3745 -40.1639 -0.542049 -0.9057 46.6904 -8.31665 4.96315 -12.4436 0.00680868 0.0462048 0.000530889 0.662642 
-5.3393 92.5068 -2.5234 3.93318 -3.22714 -76.314 3.06662 10.4216 -12.8473 0.88916 25.6014 14.1162 -18.2683 -32.0828 -3.95236 -1.33649e-009 8.75224e-006 -1.46515e-008 4.90252 22.6869 -5.07461 -2.17775 -6.34016 -3.90745 34.2849 1.7175 0.210353 41.5376 -11.4322 6.67422 3.10558 20.4726 27.8163 -8.28885 9.56288 -0.269848 -44.2657 3.56171 -3.49146 -25.7076 -10.9116 7.03192 6.32843 33.1976 -33.3248 5.82328 9.61819 -0.917488 -0.346581 -17.8629 -7.80263 -6.4409 -40.3869 -0.520114 -0.945056 47.2521 -8.90583 4.91795 -12.5276 0.00806751 0.0462048 0.000530889 0.662642 
